PathFileType	4	(X/Y/Z)	Patient4_TMGait_0pt6_01_left_46.trc.trc
DataRate	CameraRate	NumFrames	NumMarkers	Units	OrigDataRate	OrigDataStartFrame	OrigNumFrames
83.832335329341	83.832335329341	4	33	mm	83.832335329341	124	       141
Frame#	Time	Sacral			L.Shoulder			Chest			R.Shoulder			Neck			R.ASIS			L.ASIS			R.Thigh.Superior			R.Thigh.Lateral			R.Thigh.Inferior			R.Patella			L.Thigh.Superior			L.Thigh.Lateral			L.Thigh.Inferior			L.Patella			L.Shank.Superior			L.Shank.Lateral			L.Shank.Inferior			R.Shank.Superior			R.Shank.Lateral			R.Shank.Inferior			R.Heel			R.Midfoot.Superior			R.Midfoot.Lateral			R.Toe			L.Heel			L.Midfoot.Lateral			L.Midfoot.Superior			L.Toe			L.Elbow			L.Wrist			R.Elbow			R.Wrist			
		X1	Y1	Z1	X2	Y2	Z2	X3	Y3	Z3	X4	Y4	Z4	X5	Y5	Z5	X6	Y6	Z6	X7	Y7	Z7	X8	Y8	Z8	X9	Y9	Z9	X10	Y10	Z10	X11	Y11	Z11	X12	Y12	Z12	X13	Y13	Z13	X14	Y14	Z14	X15	Y15	Z15	X16	Y16	Z16	X17	Y17	Z17	X18	Y18	Z18	X19	Y19	Z19	X20	Y20	Z20	X21	Y21	Z21	X22	Y22	Z22	X23	Y23	Z23	X24	Y24	Z24	X25	Y25	Z25	X26	Y26	Z26	X27	Y27	Z27	X28	Y28	Z28	X29	Y29	Z29	X30	Y30	Z30	X31	Y31	Z31	X32	Y32	Z32	X33	Y33	Z33	

124	57.467214285714	787.625014873394	1001.201757818629	482.094349644270	931.480879486061	1426.544815247959	288.432974135812	1059.873317336990	1355.122069873636	428.647679170413	1007.044779441360	1427.347981699936	613.158328219459	937.555147286276	1483.574054164628	441.995574681752	1020.969550339749	928.212860470434	573.543890060198	980.634505753145	950.616165575666	301.161632168066	1009.927777900392	714.615792446493	547.180038036028	902.356875398172	625.042148670084	610.409047906823	957.468491162150	557.519811706798	529.222184604994	934.338492731272	473.785296937854	533.317059241676	1060.576524956794	769.188676033932	331.154833123903	1006.438855799429	636.006957946049	265.114847855883	1114.089718692153	581.249783516971	321.881774508092	1138.589965574589	513.525819571688	322.154673690467	1120.300092269666	438.620184887626	316.208604341450	1046.934153124061	309.428875971809	275.253185151004	1132.164674461014	209.959761488330	331.033567908063	893.329765627617	391.171186524112	539.744899081479	806.437362326828	298.202017749284	598.390714609721	835.080136732695	199.412823089061	534.843627082994	685.671606083911	42.288300571517	493.075530028924	853.740506790314	95.325014631091	542.622005245055	761.834008463964	35.854123092445	574.485068043038	970.517598240028	41.458442755507	582.239206118798	1042.810658893822	40.021718176111	380.776770159930	1112.989716967585	38.466373583449	297.162918596626	1190.356574333232	108.741923678031	314.599365449704	1320.379908345376	67.742016149320	283.559609690806	799.227920941534	1094.678884869920	198.486841249712	755.877565650418	839.929161537967	206.072613821637	1156.716536432487	1123.322239252418	724.985538243604	1368.592073307350	1225.821643467979	642.992855598707	
125	57.479142857143	788.795662612000	999.928224594069	479.913341204523	931.261385373724	1425.298140826307	286.180674510770	1059.832181035364	1354.649781805210	426.550106196501	1006.554762909615	1426.761625576083	611.092359444124	937.355632968500	1482.680291640930	439.732122462253	1022.138397744583	927.083623839627	571.825607664692	982.321861786398	949.806828915478	299.498001245427	1010.929303839588	713.330540366465	545.699067872223	902.754470119542	624.055823671947	608.649316094120	957.815000352345	556.028097671115	527.739284781230	933.901857838367	471.758254221782	531.608832853467	1062.658030425577	767.604481663361	330.075976574817	1007.039583759021	634.726048779719	264.936321467439	1114.361299935365	579.554836160905	322.062047179459	1137.391528101081	510.901766820543	323.169213371920	1118.332313332169	435.708516830959	317.107813448629	1043.104729592087	307.696111586180	275.714285663397	1125.702120883530	206.815437825367	332.684563037498	891.514132246703	389.706660251071	538.320155835256	803.303486911614	298.327291400251	597.525458514200	830.031884113580	198.898392288231	534.262328588932	678.506312672561	43.046726547378	493.352449429814	846.854081904719	95.351858872065	542.613093769879	754.764960448851	36.029116801567	574.485631185332	963.484831219627	40.949576843722	582.337556685376	1032.093145619302	39.447615826147	381.803020812043	1102.555212681696	37.098150158237	298.332085213132	1181.823667736840	104.884725580065	317.193884627350	1311.183229547536	60.612545741623	286.096594990176	801.127253899335	1092.383059783960	196.306321831084	759.818270280054	837.240699988558	203.609923136836	1155.623543868084	1121.810683809243	722.750617443951	1366.907392311586	1224.986340992613	640.174289168988	
126	57.491071428571	790.006810314534	998.833455839455	477.584196431383	931.189890576582	1424.254639836470	283.881167500310	1059.854560807301	1354.394451155812	424.486487434796	1005.999947154986	1426.345170903791	609.059911997449	937.217520076793	1481.999530909571	437.469539859108	1023.325377014180	926.128914333111	570.001546542134	984.101532499239	949.236882967629	297.766700079697	1012.066928809623	712.253898731551	544.114714473857	903.353656367118	623.221899715893	606.777500544002	958.481274041834	554.699020530566	526.199234844708	933.869576121710	469.749254330417	529.927694253557	1064.679565479356	766.107543680585	328.987379808621	1007.766706928182	633.755951513918	264.424711937762	1114.625291468821	578.047872093175	322.137194175946	1136.221698384261	508.570963595533	323.995765964229	1116.518746633725	433.195596228547	317.764563865588	1039.772301119898	306.279945911721	275.735003073264	1119.710112045619	204.137735300647	333.996846287807	889.958232181460	388.391882963047	536.919210735354	800.317188850066	298.713165603027	596.653582645768	825.139020796596	198.621221940115	533.743957489719	671.391429764896	44.228366950462	493.690023319581	840.129098295596	95.470075991862	542.708990761476	747.758729420758	36.393471669121	574.527596777646	956.500190524759	40.393706392201	582.443853436566	1022.129663016945	38.988400216088	382.406664622474	1092.882662497437	36.142207719190	299.092836788163	1173.691114287923	101.809837663796	319.345835405141	1302.520648709234	54.847203555002	288.204822127814	803.618886740597	1090.101548383028	193.945949287902	764.903927892183	834.452093343343	200.880191850323	1153.882542524475	1119.997749859454	720.512674544558	1365.213771959225	1222.895448468654	637.458434864789	
127	57.503000000000	791.215877230470	998.014641677522	475.132504839253	931.275071611853	1423.506592976902	281.565306316724	1059.954583110158	1354.398626232514	422.465858566696	1005.444807782483	1426.167018628059	607.062073193075	937.152759022312	1481.599482271225	435.230948604655	1024.482750224373	925.430822163223	568.044410101616	985.885125075544	948.980320334138	295.925014190901	1013.291527167202	711.469566685173	542.394993405546	904.175989962628	622.595897149777	604.804153106971	959.509478264003	553.608086291764	524.603120425109	934.336905158543	467.805838427635	528.345119100062	1066.549629336373	764.851836816644	327.851058096267	1008.593120051866	633.165395896762	263.565881828523	1114.835792091543	576.822664241841	322.042672370615	1135.081657782218	506.642945655583	324.548347361515	1114.853069367476	431.159985638298	318.136934291823	1036.917216597023	305.241362629141	275.347410394218	1114.225750576216	202.006630918401	334.947952406118	888.742129685733	387.279984293199	535.596751202652	797.532564978475	299.428726131038	595.800293066824	820.462725065180	198.646624237084	533.322988640476	664.364731348385	45.956883798797	494.092671460190	833.616524275048	95.703398229210	542.939401829262	740.832252702605	37.017395818247	574.621972416902	949.561007742045	39.809757612471	582.551129957750	1013.059808498584	38.665207830881	382.672753309512	1084.073794280950	35.573191116934	299.504003260645	1166.035388472674	99.568689147991	320.988921951337	1294.471082661674	50.545966954921	289.792416922037	806.708320909687	1087.943722057753	191.442056085370	771.113504680376	831.698199429820	197.905203853419	1151.453653280772	1117.945453054804	718.266854377962	1363.504364361943	1219.516501256835	634.864557946308	
